<?xml version="1.0" standalone="no"?>
<!DOCTYPE svg PUBLIC "-//W3C//DTD SVG 20010904//EN"
 "http://www.w3.org/TR/2001/REC-SVG-20010904/DTD/svg10.dtd">
<svg version="1.0" xmlns="http://www.w3.org/2000/svg"
 width="300.000000pt" height="433.000000pt" viewBox="0 0 300.000000 433.000000"
 preserveAspectRatio="xMidYMid meet">
<metadata>
Created by potrace 1.10, written by Peter Selinger 2001-2011
</metadata>
<g transform="translate(0.000000,433.000000) scale(0.100000,-0.100000)"
fill="#000000" stroke="none">
<path d="M1185 4307 c-131 -57 -233 -123 -321 -211 -120 -120 -179 -220 -225
-381 -19 -68 -22 -103 -22 -230 1 -135 4 -159 28 -235 15 -47 37 -105 48 -130
57 -125 176 -272 276 -340 31 -21 65 -48 76 -60 21 -23 129 -100 141 -100 3 0
-4 9 -17 20 -31 25 -17 25 64 0 110 -34 257 -50 356 -39 47 5 100 14 118 18
40 11 69 -6 61 -37 -4 -15 -2 -19 8 -15 10 4 13 -4 12 -30 -1 -19 7 -48 18
-65 10 -17 118 -155 239 -308 237 -300 401 -476 479 -512 69 -33 68 -27 -1 15
-76 45 -91 69 -36 57 135 -28 271 44 331 175 13 29 27 76 31 105 4 32 11 50
19 48 18 -3 15 9 -12 49 -13 19 -31 51 -39 70 -8 19 -55 81 -106 139 -51 58
-159 182 -241 276 -82 95 -160 181 -174 192 -14 11 -26 22 -26 25 0 3 15 23
34 43 19 21 37 47 40 58 4 17 1 16 -15 -6 -56 -76 -55 -75 -86 -55 -15 10 -36
21 -45 24 -22 7 -23 36 -3 53 28 24 108 144 137 207 48 107 69 220 70 381 2
152 5 157 40 52 18 -54 18 -55 13 -12 -6 45 -61 175 -97 225 -12 17 -22 37
-23 46 -2 26 -53 122 -97 181 -78 106 -228 229 -333 274 -22 10 -59 26 -83 37
-33 15 -63 19 -135 17 -50 0 -76 -3 -57 -5 117 -14 263 -66 359 -130 30 -20
88 -68 128 -106 198 -188 279 -428 244 -716 -20 -164 -104 -340 -215 -455 -42
-42 -42 -44 -25 -65 14 -16 24 -20 44 -15 33 8 41 0 199 -180 66 -77 168 -192
225 -255 221 -246 226 -255 225 -356 -2 -122 -50 -208 -146 -260 -42 -24 -65
-30 -113 -29 -106 0 -188 53 -298 193 -28 36 -110 140 -182 231 -72 91 -161
203 -198 250 -66 83 -79 116 -58 149 13 20 -59 103 -76 89 -22 -18 -205 -40
-283 -33 -238 20 -421 105 -577 268 -140 146 -216 308 -236 505 -31 297 87
566 327 744 133 99 260 150 421 171 17 2 -13 4 -65 5 -76 0 -105 -4 -145 -21z"/>
<path d="M1360 4230 c-228 -44 -442 -200 -542 -395 -64 -126 -83 -204 -82
-345 1 -178 34 -287 130 -431 128 -190 360 -319 602 -335 107 -7 211 6 277 35
l40 18 60 -72 60 -73 16 27 c16 26 65 73 109 104 l23 16 -40 46 -40 47 64 60
c203 195 292 507 218 762 -38 131 -84 207 -189 312 -101 100 -206 165 -331
204 -78 25 -292 36 -375 20z m336 -50 c97 -24 203 -76 281 -139 81 -64 190
-231 228 -348 31 -95 41 -242 18 -250 -7 -3 -14 13 -18 44 -16 132 -40 220
-86 312 -42 86 -56 104 -135 174 -196 174 -455 238 -669 165 -216 -73 -352
-185 -443 -364 -74 -146 -70 -429 10 -589 68 -136 218 -275 355 -330 174 -70
380 -72 530 -4 220 99 388 308 418 522 5 37 10 47 25 47 10 0 21 -4 24 -9 10
-16 -23 -138 -58 -215 -42 -92 -75 -140 -160 -234 -36 -40 -66 -80 -66 -90 0
-9 9 -32 20 -50 11 -18 20 -34 20 -36 0 -3 -19 -23 -42 -45 l-42 -40 -53 50
c-28 27 -59 49 -67 49 -8 0 -52 -9 -98 -20 -112 -27 -239 -26 -348 1 -111 28
-158 49 -256 115 -130 86 -226 213 -282 374 -23 67 -26 90 -26 215 0 152 14
216 70 327 69 136 197 257 347 326 133 62 351 80 503 42z m4 -79 c222 -70 379
-243 436 -478 30 -124 29 -193 -6 -318 -30 -106 -80 -186 -174 -281 -84 -83
-165 -131 -284 -169 -80 -26 -282 -17 -380 18 -267 95 -442 336 -442 611 0
216 88 392 256 512 71 51 206 111 278 124 79 14 241 4 316 -19z"/>
<path d="M1454 3949 c-62 -18 -114 -93 -114 -163 0 -124 129 -210 243 -162 49
20 95 78 102 129 21 135 -97 235 -231 196z m56 -47 c0 -10 19 -39 41 -65 32
-35 49 -47 70 -47 23 0 29 -5 29 -21 0 -60 -71 -123 -137 -121 -134 5 -183
183 -70 252 40 25 67 26 67 2z m99 -11 c30 -28 40 -64 22 -76 -13 -8 -104 82
-96 95 11 18 42 10 74 -19z"/>
<path d="M1112 3880 c-55 -54 -81 -90 -112 -154 -46 -96 -52 -143 -18 -148 20
-3 27 7 55 70 42 98 66 131 135 188 32 26 58 53 58 59 0 6 -10 21 -23 33 l-24
22 -71 -70z"/>
<path d="M945 3517 c-4 -13 -5 -46 -3 -73 3 -47 4 -49 33 -49 l30 0 3 73 3 72
-30 0 c-24 0 -32 -5 -36 -23z"/>
<path d="M1306 3521 c-3 -5 -31 -21 -62 -36 -122 -60 -154 -120 -154 -293 l0
-88 83 -42 c93 -48 204 -79 316 -88 116 -10 275 34 396 110 l40 24 -4 119 c-4
165 -22 194 -175 277 -27 14 -50 25 -51 24 -7 -13 -65 -151 -116 -278 -34 -85
-63 -157 -65 -159 -8 -8 -14 7 -63 135 -71 186 -122 304 -131 304 -5 0 -11 -4
-14 -9z m47 -147 c22 -49 52 -124 68 -168 70 -188 114 -181 194 34 27 72 31
82 59 142 14 31 26 61 26 67 0 56 136 -27 171 -104 23 -49 26 -190 5 -218 -16
-20 -124 -77 -148 -77 -9 0 -19 -4 -22 -9 -17 -27 -221 -37 -325 -16 -63 13
-166 51 -209 79 l-44 27 4 104 c3 98 5 105 34 142 30 37 120 95 139 89 5 -1
27 -43 48 -92z"/>
<path d="M1444 3495 c4 -16 15 -38 25 -50 16 -17 19 -31 14 -85 -3 -48 -1 -70
10 -85 15 -20 15 -20 37 0 20 18 22 26 16 87 -5 61 -4 71 19 104 38 56 35 60
-51 60 l-75 -1 5 -30z"/>
<path d="M2102 2706 c-65 -52 -182 -164 -182 -175 0 -5 80 -110 178 -233 98
-122 200 -252 226 -288 78 -104 115 -138 169 -156 40 -13 56 -14 88 -5 70 21
126 86 143 168 13 56 -9 103 -90 193 -75 83 -289 326 -407 463 -32 37 -64 67
-70 67 -7 0 -31 -16 -55 -34z m109 -58 c23 -33 54 -68 304 -341 124 -136 175
-215 175 -269 -1 -47 -44 -112 -91 -137 -39 -21 -49 -22 -85 -12 -60 16 -79
35 -199 193 -59 79 -131 170 -160 203 -28 33 -61 75 -74 92 -12 18 -42 56 -67
85 -24 28 -44 56 -44 62 0 14 117 126 131 126 7 0 10 -3 7 -6 -11 -11 21 -56
89 -127 38 -40 89 -97 113 -127 24 -30 81 -91 126 -136 l83 -81 -34 -16 c-62
-30 -87 -102 -55 -161 19 -36 84 -66 118 -56 72 21 94 51 94 123 -1 48 -3 53
-44 86 -78 64 -188 174 -291 291 -56 63 -120 132 -142 152 l-40 37 24 25 c14
14 28 26 32 26 4 0 18 -15 30 -32z m373 -539 c32 -25 35 -72 7 -109 -27 -34
-95 -35 -122 -1 -19 23 -25 76 -11 97 25 37 87 44 126 13z"/>
<path d="M810 2704 c-143 -62 -162 -264 -34 -364 l44 -35 1 -290 c1 -159 1
-299 0 -310 -1 -11 5 -29 14 -40 15 -19 15 -19 8 10 -3 16 -7 170 -7 342 -1
275 -3 314 -17 318 -23 8 -78 64 -96 99 -18 34 -19 103 -3 152 15 45 81 99
137 113 117 30 233 -63 233 -188 0 -22 -4 -51 -9 -64 -17 -45 -71 -96 -112
-107 l-39 -11 0 -336 c0 -185 3 -333 8 -329 4 4 9 148 12 319 l5 312 40 20
c157 78 149 323 -12 391 -42 18 -129 17 -173 -2z"/>
<path d="M833 2574 c-21 -21 -25 -32 -20 -66 3 -22 13 -48 22 -58 51 -56 155
-13 155 65 0 79 -100 116 -157 59z m111 -20 c34 -33 4 -104 -44 -104 -25 0
-70 46 -70 71 0 41 83 65 114 33z"/>
<path d="M1409 2529 c-12 -11 -26 -19 -30 -19 -5 0 -25 -24 -45 -54 -31 -48
-36 -62 -37 -123 -2 -98 42 -176 117 -208 l29 -13 -1 -463 c-2 -423 -3 -465
-19 -476 -30 -22 -60 -15 -87 20 -15 19 -26 41 -26 49 0 9 -7 21 -16 28 -34
29 -37 55 -41 323 -3 256 -2 271 17 302 43 70 13 162 -67 197 -44 19 -44 19
-88 -2 -46 -22 -75 -66 -75 -116 0 -33 35 -88 67 -105 22 -12 22 -12 21 -293
-1 -323 3 -347 87 -445 37 -43 43 -56 35 -71 -6 -10 -15 -22 -20 -25 -5 -3
-22 -32 -37 -63 -15 -31 -33 -63 -40 -71 -22 -21 -62 2 -137 79 l-67 69 35 45
c79 103 54 241 -56 313 -36 24 -51 28 -111 27 -59 -1 -75 -6 -110 -30 -123
-87 -139 -222 -40 -321 43 -43 51 -58 34 -65 -5 -1 -30 -29 -55 -60 -31 -39
-54 -58 -69 -58 -12 0 -35 -7 -51 -15 -16 -9 -32 -12 -36 -8 -3 4 -19 25 -34
46 -51 70 -100 87 -199 71 -23 -4 -49 -19 -68 -38 -86 -86 -76 -190 31 -297
38 -38 57 -49 93 -54 24 -4 53 -5 63 -2 12 3 6 5 -13 6 -33 1 -58 21 -26 21
10 0 33 9 52 21 31 19 49 37 87 88 9 12 15 13 26 3 8 -6 18 -9 21 -6 3 4 55 5
114 4 59 -1 200 -3 312 -4 170 -1 205 -4 212 -16 34 -62 66 -140 60 -145 -5
-2 -23 0 -40 6 -41 14 -121 -4 -149 -34 -32 -34 -65 -116 -59 -147 l6 -27
-136 -2 c-142 -2 -165 -8 -184 -42 -9 -18 -7 -26 15 -48 26 -25 29 -26 160
-26 113 0 137 3 153 17 25 23 30 22 88 -3 127 -56 256 58 225 197 -10 43 -3
43 75 1 58 -31 60 -34 65 -77 3 -25 3 -76 0 -115 l-5 -70 -196 0 c-147 0 -200
-3 -212 -13 -11 -9 -21 -10 -34 -4 -27 15 -134 21 -198 13 -40 -6 -64 -15 -81
-32 l-25 -25 26 -24 c14 -13 44 -26 72 -31 59 -10 169 -1 203 16 20 10 28 10
45 -1 25 -16 152 -20 317 -9 90 6 110 5 129 -9 31 -21 54 -20 88 5 26 19 32
19 72 8 64 -18 308 -18 342 0 23 12 31 12 54 0 18 -10 61 -14 144 -14 111 0
118 1 138 24 12 13 21 26 21 28 0 18 -27 47 -53 58 -41 16 -239 14 -259 -3
-12 -9 -22 -9 -47 4 -28 14 -58 15 -206 10 l-172 -6 -6 41 c-3 22 -3 73 0 113
l6 73 64 32 c35 17 64 31 66 31 1 0 1 -26 -1 -57 -8 -142 109 -223 234 -162
l43 20 20 -20 c19 -19 33 -21 134 -21 138 0 184 11 198 48 9 23 7 30 -16 49
-27 24 -56 27 -230 26 l-71 -1 4 32 c2 17 -6 52 -17 78 -27 65 -78 98 -153 99
l-56 2 29 57 c16 32 29 62 29 68 0 25 49 30 310 32 151 1 288 3 304 4 22 1 32
-6 46 -31 28 -52 42 -65 98 -90 50 -22 144 -34 113 -14 -8 5 -20 7 -27 4 -6
-2 -14 -1 -17 4 -3 5 6 10 19 11 35 3 80 28 115 64 21 22 28 26 23 12 -4 -10
-11 -25 -17 -32 -6 -8 -6 -12 1 -12 31 0 45 187 18 239 -16 30 -61 73 -94 90
-75 39 -194 -5 -237 -89 -13 -25 -19 -29 -35 -20 -10 5 -30 10 -44 10 -24 0
-41 14 -110 95 -34 39 -33 47 7 78 74 56 100 172 58 256 -43 82 -153 143 -229
125 -108 -26 -182 -115 -182 -219 0 -56 18 -99 59 -144 17 -19 31 -36 31 -38
0 -10 -125 -120 -150 -132 -39 -19 -53 -11 -85 51 -15 29 -36 62 -46 74 -10
11 -19 24 -19 28 0 5 17 34 39 65 81 119 76 94 76 412 l1 286 42 48 c51 58 61
100 36 152 -63 127 -256 99 -271 -39 -4 -36 0 -51 27 -91 l32 -48 -5 -283 -5
-284 -42 -61 c-46 -65 -67 -74 -107 -46 -20 14 -21 19 -19 367 1 194 -1 395
-4 447 l-5 93 56 29 c58 29 102 72 115 111 4 13 2 24 -5 26 -6 2 -11 11 -11
19 0 13 3 13 15 3 14 -12 15 -8 9 31 -3 24 -15 62 -25 84 -23 51 -87 120 -118
130 -16 5 -20 10 -11 15 23 14 -8 21 -95 19 -67 -1 -89 -5 -106 -20z m164 -10
c55 -15 123 -90 136 -151 18 -80 -3 -143 -63 -196 -99 -87 -255 -52 -318 71
-26 51 -19 132 17 193 29 50 44 62 92 80 46 16 86 17 136 3z m-13 -899 l0
-478 43 -10 c23 -5 49 -13 58 -16 12 -5 30 14 72 77 l56 84 5 169 c3 93 6 225
7 294 l1 126 -36 36 c-48 48 -50 93 -3 144 61 66 164 55 201 -22 9 -19 16 -42
16 -51 0 -30 -41 -81 -81 -101 -22 -11 -35 -23 -30 -27 7 -4 11 -102 11 -293
l0 -288 -47 -75 c-27 -41 -58 -88 -71 -104 l-23 -29 35 -35 c36 -37 75 -112
76 -143 0 -14 8 -18 34 -18 53 0 75 12 151 82 l70 65 88 5 88 6 37 -40 c48
-52 72 -89 72 -111 0 -16 7 -18 53 -15 l52 3 3 -43 3 -42 -318 0 -318 0 -17
-48 c-26 -72 -92 -167 -139 -202 -24 -17 -67 -37 -96 -46 l-53 -15 0 -170 0
-169 -25 -12 c-21 -10 -29 -9 -42 5 -15 15 -17 39 -15 179 l3 163 -70 32
c-115 54 -211 168 -211 253 l0 30 -345 0 -345 0 0 45 0 45 49 0 c46 0 51 3 82
43 82 106 81 106 184 106 51 0 97 2 102 3 4 1 43 -32 86 -75 76 -75 79 -77
127 -77 38 0 50 4 50 15 0 24 49 116 86 162 l34 41 -59 57 c-100 95 -102 104
-103 451 0 252 -2 294 -15 294 -8 0 -28 13 -44 29 -51 52 -36 131 32 167 42
21 83 10 119 -34 39 -48 42 -107 5 -142 -13 -12 -22 -27 -19 -32 3 -5 8 -132
11 -281 5 -303 8 -317 74 -403 44 -58 45 -62 22 -81 -16 -11 -14 -12 12 -1 17
7 39 18 50 25 11 7 34 13 52 13 l33 0 0 479 0 479 40 0 40 1 0 -479z m762
-243 c120 -88 95 -263 -46 -321 -52 -22 -78 -20 -134 8 -102 52 -136 135 -96
232 20 48 40 71 79 92 68 35 140 31 197 -11z m-1421 7 c40 -20 87 -80 95 -119
20 -111 -65 -225 -169 -225 -55 0 -135 47 -168 98 -39 62 -39 113 0 174 54 85
157 116 242 72z m-484 -449 c40 -42 43 -49 43 -101 0 -102 -60 -174 -145 -174
-93 0 -171 87 -162 181 7 88 68 138 166 139 52 0 57 -2 98 -45z m2346 31 c113
-47 125 -203 21 -282 -100 -77 -244 -1 -244 128 0 123 113 201 223 154z
m-1570 -410 c105 -44 116 -180 21 -252 -91 -70 -214 -3 -214 116 0 107 99 176
193 136z m758 -11 c92 -48 89 -196 -4 -254 -65 -40 -139 -16 -177 58 -26 51
-25 95 1 137 43 70 113 93 180 59z m-969 -220 c19 -43 1 -50 -130 -49 -146 1
-172 6 -172 38 0 14 6 27 13 29 6 3 72 6 145 6 132 1 132 1 144 -24z m1339 15
c19 -11 26 -44 10 -54 -11 -7 -301 -16 -301 -10 0 3 7 20 14 39 l15 35 121 0
c67 0 130 -5 141 -10z m-1335 -186 c10 -38 -7 -44 -121 -44 -76 0 -106 4 -123
16 -51 36 -10 52 135 53 103 1 103 1 109 -25z m472 -1 c-3 -27 -6 -28 -73 -34
-111 -10 -301 -10 -328 0 -29 11 -43 41 -25 53 7 4 107 8 221 8 l208 0 -3 -27z
m530 3 c7 -36 -24 -46 -147 -46 -64 0 -146 3 -183 7 -67 6 -68 6 -68 35 l0 28
197 -2 c186 -3 198 -4 201 -22z m303 14 c10 -6 19 -17 19 -25 0 -28 -39 -36
-157 -33 l-118 3 -3 33 -3 32 121 0 c67 0 130 -5 141 -10z"/>
<path d="M1476 2415 c-41 -21 -55 -44 -56 -87 0 -49 40 -98 80 -98 35 0 77 18
84 36 4 9 -6 7 -32 -6 -20 -11 -43 -20 -50 -20 -23 0 -72 57 -72 83 0 32 45
87 71 87 10 0 19 5 19 10 0 14 -10 12 -44 -5z"/>
<path d="M1460 1061 c-114 -37 -174 -111 -187 -231 -8 -85 14 -140 88 -212 85
-83 163 -99 257 -52 29 14 52 29 52 32 0 4 -12 20 -26 36 -25 28 -28 29 -58
17 -52 -22 -94 -25 -121 -7 -32 21 -41 20 -73 -5 -20 -15 -28 -17 -30 -7 -3 7
-12 19 -20 26 -15 11 -15 15 -2 36 18 29 88 86 105 86 7 0 25 -19 40 -42 l28
-42 16 24 c9 13 25 35 37 49 21 24 21 24 52 6 33 -20 92 -94 92 -116 0 -27 20
9 46 81 29 84 27 115 -12 191 -38 75 -113 123 -210 133 -27 3 -60 2 -74 -3z
m109 -71 c21 -10 41 -26 45 -35 37 -97 -86 -182 -161 -113 -25 24 -39 75 -28
108 8 24 60 60 88 60 10 0 35 -9 56 -20z m-165 -26 c-18 -44 -12 -88 17 -128
15 -20 19 -31 11 -34 -7 -2 -34 -19 -61 -37 -55 -38 -61 -35 -61 38 0 68 19
119 60 159 21 21 40 38 43 38 3 0 -1 -16 -9 -36z m299 -31 c30 -43 43 -105 33
-158 -9 -46 -29 -45 -84 5 l-44 39 21 34 c22 36 27 82 12 107 -6 8 -7 18 -5
22 9 14 39 -9 67 -49z m-221 -323 c25 -8 71 -1 111 15 11 5 17 3 17 -7 0 -21
-44 -38 -99 -38 -39 0 -52 5 -72 27 -21 23 -22 25 -4 19 11 -5 32 -12 47 -16z"/>
<path d="M835 933 c-11 -2 -29 -6 -40 -8 -19 -4 -62 -62 -52 -71 2 -3 59 -3
126 -2 l123 3 -58 43 c-32 23 -63 41 -69 41 -5 -1 -19 -3 -30 -6z"/>
<path d="M2105 890 l-39 -40 132 0 133 0 -26 34 c-32 42 -42 46 -109 46 -47 0
-55 -3 -91 -40z"/>
<path d="M2164 1320 c-60 -24 -73 -112 -25 -161 78 -77 212 11 171 112 -21 49
-89 72 -146 49z m98 -47 c24 -21 23 -54 -2 -81 -26 -27 -64 -28 -90 -2 -24 24
-25 48 -4 78 18 27 69 30 96 5z"/>
<path d="M770 1312 c-66 -32 -74 -95 -20 -152 22 -23 37 -30 67 -30 43 0 50 4
81 44 38 50 23 115 -35 145 -30 15 -52 14 -93 -7z m100 -52 l21 -30 -21 -30
c-37 -52 -110 -31 -110 31 0 59 75 78 110 29z"/>
<path d="M2618 1623 c17 -2 47 -2 65 0 17 2 3 4 -33 4 -36 0 -50 -2 -32 -4z"/>
</g>
</svg>
