<svg width="20" height="19" viewBox="0 0 20 19" fill="none" xmlns="http://www.w3.org/2000/svg">
<path d="M18 4.5H14.25C14.25 3.30653 13.7759 2.16193 12.932 1.31802C12.0881 0.474106 10.9435 0 9.75 0C8.55653 0 7.41193 0.474106 6.56802 1.31802C5.72411 2.16193 5.25 3.30653 5.25 4.5H1.5C1.10218 4.5 0.720644 4.65804 0.43934 4.93934C0.158035 5.22064 0 5.60218 0 6V17.25C0 17.6478 0.158035 18.0294 0.43934 18.3107C0.720644 18.592 1.10218 18.75 1.5 18.75H18C18.3978 18.75 18.7794 18.592 19.0607 18.3107C19.342 18.0294 19.5 17.6478 19.5 17.25V6C19.5 5.60218 19.342 5.22064 19.0607 4.93934C18.7794 4.65804 18.3978 4.5 18 4.5ZM9.75 1.5C10.5456 1.5 11.3087 1.81607 11.8713 2.37868C12.4339 2.94129 12.75 3.70435 12.75 4.5H6.75C6.75 3.70435 7.06607 2.94129 7.62868 2.37868C8.19129 1.81607 8.95435 1.5 9.75 1.5ZM18 17.25H1.5V6H18V17.25Z" fill="#007577"/>
<path d="M13.8987 15.4094L11.7345 13.2457C12.3618 12.4926 12.6746 11.5267 12.6078 10.5489C12.541 9.57112 12.0999 8.6567 11.3761 7.99588C10.6523 7.33506 9.70162 6.97872 8.7218 7.00098C7.74197 7.02325 6.80845 7.42241 6.11543 8.11543C5.42241 8.80845 5.02325 9.74197 5.00098 10.7218C4.97872 11.7016 5.33506 12.6523 5.99588 13.3761C6.6567 14.0999 7.57112 14.541 8.54892 14.6078C9.52672 14.6746 10.4926 14.3618 11.2457 13.7345L13.4094 15.8987C13.4415 15.9308 13.4797 15.9563 13.5216 15.9737C13.5636 15.9911 13.6086 16 13.654 16C13.6995 16 13.7445 15.9911 13.7864 15.9737C13.8284 15.9563 13.8665 15.9308 13.8987 15.8987C13.9308 15.8665 13.9563 15.8284 13.9737 15.7864C13.9911 15.7445 14 15.6995 14 15.654C14 15.6086 13.9911 15.5636 13.9737 15.5216C13.9563 15.4797 13.9308 15.4415 13.8987 15.4094ZM5.70111 10.8131C5.70111 10.1976 5.88363 9.59595 6.22558 9.08418C6.56753 8.57241 7.05356 8.17354 7.62221 7.938C8.19085 7.70246 8.81657 7.64083 9.42025 7.76091C10.0239 7.88099 10.5784 8.17738 11.0136 8.6126C11.4489 9.04782 11.7453 9.60233 11.8653 10.206C11.9854 10.8097 11.9238 11.4354 11.6882 12.004C11.4527 12.5727 11.0538 13.0587 10.5421 13.4007C10.0303 13.7426 9.42862 13.9251 8.81312 13.9251C7.98805 13.9242 7.19703 13.5961 6.61361 13.0126C6.03019 12.4292 5.70203 11.6382 5.70111 10.8131Z" fill="#007577"/>
</svg>
