<svg width="302" height="360" viewBox="0 0 302 360" fill="none" xmlns="http://www.w3.org/2000/svg">
<path d="M75.7333 2.86386C58.2667 10.4639 44.6667 19.2639 32.9333 30.9972C16.9333 46.9972 9.06667 60.3305 2.93333 81.7972C0.4 90.8639 0 95.5306 0 112.464C0.133333 130.464 0.533333 133.664 3.73333 143.797C5.73333 150.064 8.66667 157.797 10.1333 161.131C17.7333 177.797 33.6 197.397 46.9333 206.464C51.0667 209.264 55.6 212.864 57.0667 214.464C59.8667 217.531 74.2667 227.797 75.8667 227.797C76.2667 227.797 75.3333 226.597 73.6 225.131C69.4667 221.797 71.3333 221.797 82.1333 225.131C96.8 229.664 116.4 231.797 129.6 230.331C135.867 229.664 142.933 228.464 145.333 227.931C150.667 226.464 154.533 228.731 153.467 232.864C152.933 234.864 153.2 235.397 154.533 234.864C155.867 234.331 156.267 235.397 156.133 238.864C156 241.397 157.067 245.264 158.533 247.531C159.867 249.797 174.267 268.197 190.4 288.597C222 328.597 243.867 352.064 254.267 356.864C263.467 361.264 263.333 360.464 254.133 354.864C244 348.864 242 345.664 249.333 347.264C267.333 350.997 285.467 341.397 293.467 323.931C295.2 320.064 297.067 313.797 297.6 309.931C298.133 305.664 299.067 303.264 300.133 303.531C302.533 303.931 302.133 302.331 298.533 296.997C296.8 294.464 294.4 290.197 293.333 287.664C292.267 285.131 286 276.864 279.2 269.131C272.4 261.397 258 244.864 247.067 232.331C236.133 219.664 225.733 208.197 223.867 206.731C222 205.264 220.4 203.797 220.4 203.397C220.4 202.997 222.4 200.331 224.933 197.664C227.467 194.864 229.867 191.397 230.267 189.931C230.8 187.664 230.4 187.797 228.267 190.731C220.8 200.864 220.933 200.731 216.8 198.064C214.8 196.731 212 195.264 210.8 194.864C207.867 193.931 207.733 190.064 210.4 187.797C214.133 184.597 224.8 168.597 228.667 160.197C235.067 145.931 237.867 130.864 238 109.397C238.267 89.1306 238.667 88.4639 243.333 102.464C245.733 109.664 245.733 109.797 245.067 104.064C244.267 98.0639 236.933 80.7305 232.133 74.0639C230.533 71.7972 229.2 69.1305 229.067 67.9305C228.8 64.4639 222 51.6639 216.133 43.7972C205.733 29.6639 185.733 13.2639 171.733 7.26387C168.8 5.93053 163.867 3.7972 160.667 2.33053C156.267 0.330531 152.267 -0.202802 142.667 0.0638647C136 0.0638647 132.533 0.463865 135.067 0.730531C150.667 2.5972 170.133 9.53053 182.933 18.0639C186.933 20.7305 194.667 27.1305 200 32.1972C226.4 57.2639 237.2 89.2639 232.533 127.664C229.867 149.531 218.667 172.997 203.867 188.331C198.267 193.931 198.267 194.197 200.533 196.997C202.4 199.131 203.733 199.664 206.4 198.997C210.8 197.931 211.867 198.997 232.933 222.997C241.733 233.264 255.333 248.597 262.933 256.997C292.4 289.797 293.067 290.997 292.933 304.464C292.667 320.731 286.267 332.197 273.467 339.131C267.867 342.331 264.8 343.131 258.4 342.997C244.267 342.997 233.333 335.931 218.667 317.264C214.933 312.464 204 298.597 194.4 286.464C184.8 274.331 172.933 259.397 168 253.131C159.2 242.064 157.467 237.664 160.267 233.264C162 230.597 152.4 219.531 150.133 221.397C147.2 223.797 122.8 226.731 112.4 225.797C80.6667 223.131 56.2667 211.797 35.4667 190.064C16.8 170.597 6.66667 148.997 4 122.731C-0.133333 83.1306 15.6 47.2639 47.6 23.5305C65.3333 10.3305 82.2667 3.53053 103.733 0.730531C106 0.463865 102 0.197198 95.0667 0.0638647C84.9333 0.0638647 81.0667 0.597198 75.7333 2.86386Z" fill="#007577"/>
<path d="M99.2049 7.9989C68.8049 13.8656 40.2716 34.6656 26.9383 60.6656C18.4049 77.4656 15.8716 87.8656 16.0049 106.666C16.1383 130.399 20.5383 144.932 33.3383 164.132C50.4049 189.466 81.3383 206.666 113.605 208.799C127.872 209.732 141.738 207.999 150.538 204.132L155.872 201.732L163.872 211.332L171.872 221.066L174.005 217.466C176.138 213.999 182.672 207.732 188.538 203.599L191.605 201.466L186.272 195.332L180.938 189.066L189.472 181.066C216.538 155.066 228.405 113.466 218.538 79.4656C213.472 61.9989 207.338 51.8656 193.338 37.8656C179.872 24.5322 165.872 15.8656 149.205 10.6656C138.805 7.33223 110.272 5.86556 99.2049 7.9989ZM144.005 14.6656C156.938 17.8656 171.072 24.7989 181.472 33.1989C192.272 41.7322 206.805 63.9989 211.872 79.5989C216.005 92.2656 217.338 111.866 214.272 112.932C213.338 113.332 212.405 111.199 211.872 107.066C209.738 89.4656 206.538 77.7322 200.405 65.4656C194.805 53.9989 192.938 51.5989 182.405 42.2656C156.272 19.0656 121.738 10.5322 93.2049 20.2656C64.4049 29.9989 46.2716 44.9322 34.1383 68.7989C24.2716 88.2656 24.8049 125.999 35.4716 147.332C44.5383 165.466 64.5383 183.999 82.8049 191.332C106.005 200.666 133.472 200.932 153.472 191.866C182.805 178.666 205.205 150.799 209.205 122.266C209.872 117.332 210.538 115.999 212.538 115.999C213.872 115.999 215.338 116.532 215.738 117.199C217.072 119.332 212.672 135.599 208.005 145.866C202.405 158.132 198.005 164.532 186.672 177.066C181.872 182.399 177.872 187.732 177.872 189.066C177.872 190.266 179.072 193.332 180.538 195.732C182.005 198.132 183.205 200.266 183.205 200.532C183.205 200.932 180.672 203.599 177.605 206.532L172.005 211.866L164.938 205.199C161.205 201.599 157.072 198.666 156.005 198.666C154.938 198.666 149.072 199.866 142.938 201.332C128.005 204.932 111.072 204.799 96.5383 201.199C81.7383 197.466 75.4716 194.666 62.4049 185.866C45.0716 174.399 32.2716 157.466 24.8049 135.999C21.7383 127.066 21.3383 123.999 21.3383 107.332C21.3383 87.0656 23.2049 78.5322 30.6716 63.7322C39.8716 45.5989 56.9383 29.4656 76.9383 20.2656C94.6716 11.9989 123.738 9.5989 144.005 14.6656ZM144.538 25.1989C174.138 34.5322 195.072 57.5989 202.672 88.9322C206.672 105.466 206.538 114.666 201.872 131.332C197.872 145.466 191.205 156.132 178.672 168.799C167.472 179.866 156.672 186.266 140.805 191.332C130.138 194.799 103.205 193.599 90.1383 188.932C54.5383 176.266 31.2049 144.132 31.2049 107.466C31.2049 78.6656 42.9383 55.1989 65.3383 39.1989C74.8049 32.3989 92.8049 24.3989 102.405 22.6656C112.938 20.7989 134.538 22.1322 144.538 25.1989Z" fill="#007577"/>
<path d="M192.267 210.533C183.6 217.467 168 232.4 168 233.867C168 234.533 178.667 248.533 191.733 264.933C204.8 281.2 218.4 298.533 221.867 303.333C232.267 317.2 237.2 321.733 244.4 324.133C249.733 325.867 251.867 326 256.133 324.8C265.467 322 272.933 313.333 275.2 302.4C276.933 294.933 274 288.667 263.2 276.667C253.2 265.6 224.667 233.2 208.933 214.933C204.667 210 200.4 206 199.6 206C198.667 206 195.467 208.133 192.267 210.533ZM206.8 218.267C209.867 222.667 214 227.333 247.333 263.733C263.867 281.867 270.667 292.4 270.667 299.6C270.533 305.867 264.8 314.533 258.533 317.867C253.333 320.667 252 320.8 247.2 319.467C239.2 317.333 236.667 314.8 220.667 293.733C212.8 283.2 203.2 271.067 199.333 266.667C195.6 262.267 191.2 256.667 189.467 254.4C187.867 252 183.867 246.933 180.533 243.067C177.333 239.333 174.667 235.6 174.667 234.8C174.667 232.933 190.267 218 192.133 218C193.067 218 193.467 218.4 193.067 218.8C191.6 220.267 195.867 226.267 204.933 235.733C210 241.067 216.8 248.667 220 252.667C223.2 256.667 230.8 264.8 236.8 270.8L247.867 281.6L243.333 283.733C235.067 287.733 231.733 297.333 236 305.2C238.533 310 247.2 314 251.733 312.667C261.333 309.867 264.267 305.867 264.267 296.267C264.133 289.867 263.867 289.2 258.4 284.8C248 276.267 233.333 261.6 219.6 246C212.133 237.6 203.6 228.4 200.667 225.733L195.333 220.8L198.533 217.467C200.4 215.6 202.267 214 202.8 214C203.333 214 205.2 216 206.8 218.267ZM256.533 290.133C260.8 293.467 261.2 299.733 257.467 304.667C253.867 309.2 244.8 309.333 241.2 304.8C238.667 301.733 237.867 294.667 239.733 291.867C243.067 286.933 251.333 286 256.533 290.133Z" fill="#007577"/>
<path d="M103.509 56.9539C80.226 64.4837 67.9719 79.5432 65.3168 103.964C63.683 121.262 68.1761 132.455 83.2895 147.107C100.649 163.998 116.58 167.255 135.778 157.69C141.701 154.841 146.398 151.788 146.398 151.178C146.398 150.364 143.947 147.107 141.088 143.851C135.982 138.153 135.369 137.95 129.242 140.392C118.622 144.869 110.044 145.479 104.53 141.816C97.9943 137.543 96.1562 137.746 89.6207 142.834C85.536 145.886 83.9022 146.293 83.4937 144.258C82.881 142.834 81.0429 140.392 79.409 138.967C76.3455 136.729 76.3455 135.915 79.0005 131.641C82.6768 125.739 96.9732 114.139 100.445 114.139C101.875 114.139 105.551 118.006 108.615 122.687L114.333 131.234L117.601 126.35C119.439 123.704 122.707 119.227 125.158 116.378C129.446 111.494 129.446 111.494 135.778 115.157C142.517 119.227 154.567 134.286 154.567 138.764C154.567 144.258 158.652 136.932 163.962 122.28C169.885 105.185 169.476 98.8763 161.511 83.4098C153.75 68.1468 138.433 58.3785 118.622 56.3434C113.108 55.7329 106.368 55.9364 103.509 56.9539ZM125.77 71.4029C130.059 73.438 134.144 76.6941 134.961 78.5256C142.517 98.2658 117.397 115.564 102.079 101.522C96.9732 96.6377 94.1139 86.2589 96.3605 79.5432C97.9943 74.659 108.615 67.3328 114.333 67.3328C116.375 67.3328 121.481 69.1643 125.77 71.4029ZM92.0715 76.6941C88.3953 85.6484 89.6207 94.6027 95.5435 102.743C98.6071 106.813 99.424 109.052 97.7901 109.662C96.3605 110.069 90.8461 113.529 85.3318 117.192C74.0989 124.925 72.8735 124.315 72.8735 109.459C72.8735 95.6202 76.754 85.2414 85.1276 77.1011C89.4165 72.8275 93.297 69.3678 93.9097 69.3678C94.5224 69.3678 93.7054 72.624 92.0715 76.6941ZM153.138 83.0028C159.265 91.7536 161.92 104.371 159.877 115.157C158.039 124.518 153.955 124.315 142.722 114.139L133.735 106.203L138.024 99.2833C142.517 91.9571 143.539 82.5958 140.475 77.5081C139.25 75.8801 139.045 73.845 139.454 73.031C141.292 70.1819 147.419 74.8625 153.138 83.0028ZM108.002 148.735C113.108 150.364 122.502 148.939 130.672 145.683C132.918 144.665 134.144 145.072 134.144 147.107C134.144 151.381 125.158 154.841 113.925 154.841C105.959 154.841 103.304 153.823 99.2198 149.346C94.9308 144.665 94.7266 144.258 98.4028 145.479C100.649 146.497 104.938 147.921 108.002 148.735Z" fill="#007577"/>
</svg><path d="M103.509 56.9539C80.226 64.4837 67.9719 79.5432 65.3168 103.964C63.683 121.262 68.1761 132.455 83.2895 147.107C100.649 163.998 116.58 167.255 135.778 157.69C141.701 154.841 146.398 151.788 146.398 151.178C146.398 150.364 143.947 147.107 141.088 143.851C135.982 138.153 135.369 137.95 129.242 140.392C118.622 144.869 110.044 145.479 104.53 141.816C97.9943 137.543 96.1562 137.746 89.6207 142.834C85.536 145.886 83.9022 146.293 83.4937 144.258C82.881 142.834 81.0429 140.392 79.409 138.967C76.3455 136.729 76.3455 135.915 79.0005 131.641C82.6768 125.739 96.9732 114.139 100.445 114.139C101.875 114.139 105.551 118.006 108.615 122.687L114.333 131.234L117.601 126.35C119.439 123.704 122.707 119.227 125.158 116.378C129.446 111.494 129.446 111.494 135.778 115.157C142.517 119.227 154.567 134.286 154.567 138.764C154.567 144.258 158.652 136.932 163.962 122.28C169.885 105.185 169.476 98.8763 161.511 83.4098C153.75 68.1468 138.433 58.3785 118.622 56.3434C113.108 55.7329 106.368 55.9364 103.509 56.9539ZM125.77 71.4029C130.059 73.438 134.144 76.6941 134.961 78.5256C142.517 98.2658 117.397 115.564 102.079 101.522C96.9732 96.6377 94.1139 86.2589 96.3605 79.5432C97.9943 74.659 108.615 67.3328 114.333 67.3328C116.375 67.3328 121.481 69.1643 125.77 71.4029ZM92.0715 76.6941C88.3953 85.6484 89.6207 94.6027 95.5435 102.743C98.6071 106.813 99.424 109.052 97.7901 109.662C96.3605 110.069 90.8461 113.529 85.3318 117.192C74.0989 124.925 72.8735 124.315 72.8735 109.459C72.8735 95.6202 76.754 85.2414 85.1276 77.1011C89.4165 72.8275 93.297 69.3678 93.9097 69.3678C94.5224 69.3678 93.7054 72.624 92.0715 76.6941ZM153.138 83.0028C159.265 91.7536 161.92 104.371 159.877 115.157C158.039 124.518 153.955 124.315 142.722 114.139L133.735 106.203L138.024 99.2833C142.517 91.9571 143.539 82.5958 140.475 77.5081C139.25 75.8801 139.045 73.845 139.454 73.031C141.292 70.1819 147.419 74.8625 153.138 83.0028ZM108.002 148.735C113.108 150.364 122.502 148.939 130.672 145.683C132.918 144.665 134.144 145.072 134.144 147.107C134.144 151.381 125.158 154.841 113.925 154.841C105.959 154.841 103.304 153.823 99.2198 149.346C94.9308 144.665 94.7266 144.258 98.4028 145.479C100.649 146.497 104.938 147.921 108.002 148.735Z" fill="#007577"/>
</svg>
