<svg width="307" height="310" viewBox="0 0 307 310" fill="none" xmlns="http://www.w3.org/2000/svg">
<mask id="path-1-outside-1_68_4" maskUnits="userSpaceOnUse" x="88" y="55.4512" width="189" height="161" fill="black">
<rect fill="white" x="88" y="55.4512" width="189" height="161"/>
<path d="M232.067 61.2168C225.667 65.7501 221.133 72.0168 221.133 76.5501C221.133 78.1501 220.6 79.8835 219.8 80.2835C217.8 81.4835 218.2 88.5501 220.333 89.3501C221.533 89.8835 221.933 91.2168 221.533 92.8168C221.133 94.4168 221.933 96.2835 223.667 97.7501C225.267 99.0835 226.467 101.35 226.467 102.817C226.467 104.15 228.6 107.35 231.267 109.883C233.933 112.417 235.933 114.55 235.667 114.817C235.4 114.95 231.667 115.883 227.533 116.817C219.667 118.55 213.133 123.883 213.133 128.683C213.133 132.15 211.133 128.817 209.267 122.283C205.667 109.75 199.133 104.95 185.8 104.95C173.133 104.95 166.467 110.283 162.467 123.617C159.267 134.017 157.133 137.883 157.133 133.217C157.133 128.417 150.733 123.083 140.867 119.483C131.533 116.15 129.667 113.75 133.8 110.283C134.867 109.35 135.8 107.883 135.8 106.95C135.8 106.017 137.667 103.483 139.8 101.083C143.133 97.7501 143.667 96.4168 142.467 94.2835C141.8 92.9501 141.133 88.9501 141.133 85.4835C141.133 80.1501 140.467 78.6835 136.067 74.2835C129.4 67.6168 123.533 66.4168 115.4 70.0168C108.2 73.2168 105.4 77.8835 103.8 89.3501C102.6 97.8835 103.667 102.283 107.133 102.283C108.2 102.283 109.133 103.083 109.133 104.15C109.133 105.083 110.333 107.483 111.8 109.35C113.267 111.217 114.467 113.483 114.467 114.55C114.467 115.483 110.067 117.883 104.733 119.883C89.5333 125.617 89.2667 126.15 89 148.55C89 158.95 89.2667 168.15 89.8 168.817C90.8667 170.683 107.8 170.683 107.8 168.95C107.8 168.15 106.867 167.617 105.8 167.617C104.2 167.617 103.8 164.683 103.533 151.883C103 131.483 100.467 132.017 100.467 152.683V167.617H96.2H91.8V149.883C91.8 136.683 92.3333 131.483 93.6667 129.483C95.9333 126.417 108.067 121.217 108.733 123.083C110.2 127.617 114.867 133.083 116.467 132.417C119 131.483 119 132.283 116.2 148.017L114.067 160.95L117.133 164.283L120.2 167.617H116.067C113.667 167.617 111.8 168.15 111.8 168.95C111.8 169.75 119.4 170.283 131.8 170.283C151.533 170.283 151.8 170.283 150.467 172.95C149.4 175.083 147.667 175.617 143 175.617C138.467 175.617 137 176.15 137.533 177.35C137.933 178.283 140.067 186.283 142.333 194.95C144.733 203.75 146.867 212.017 147.267 213.35C147.933 215.483 150.6 215.617 186.2 215.35L224.467 214.95L224.867 200.95C225.4 183.617 224.6 177.483 220.867 171.617C217.533 166.283 217.267 162.95 219.667 158.417C220.6 156.683 221 153.617 220.6 151.483L219.933 147.617H246.333C268.2 147.617 273.133 147.217 274.467 145.617C275.533 144.283 275.933 140.683 275.533 134.95C274.867 123.75 270.867 119.083 259.933 116.817C255.8 115.883 252.2 114.95 251.933 114.817C251.667 114.55 253.667 112.417 256.333 109.883C259 107.35 261.133 104.15 261.133 102.817C261.133 101.35 262.333 99.0835 263.933 97.7501C265.667 96.4168 266.467 94.4168 266.067 92.9501C265.667 91.4835 266.2 90.1501 267.267 89.7501C269.4 88.9501 269.8 81.4835 267.8 80.2835C267.133 79.8835 266.467 78.1501 266.467 76.5501C266.467 71.8835 261.933 65.6168 255.133 61.0835C247 55.6168 240.067 55.6168 232.067 61.2168ZM250.067 66.9501C249.8 74.1501 252.333 75.6168 252.867 68.6835L253.267 63.6168L256.733 65.8835C259.8 68.0168 263.8 74.8168 263.8 78.2835C263.8 79.0835 256.6 79.6168 243.667 79.6168C225.8 79.6168 223.667 79.3501 224.333 77.4835C224.733 76.2835 225.133 74.5501 225.133 73.6168C225.133 72.6835 227.133 69.8835 229.533 67.4835L233.8 63.0835L234.467 68.1501C235.4 75.2168 237.667 74.6835 238.2 67.2168L238.6 60.9501H244.467H250.2L250.067 66.9501ZM131.533 73.7501C135.267 76.2835 138.467 82.4168 138.467 86.9501V90.2835L134.867 86.2835L131.133 82.1501L125.533 84.9501C122.467 86.4168 117.933 87.6168 115.4 87.6168C113 87.6168 110.333 88.2835 109.4 89.2168C108.2 90.4168 107.8 89.7501 107.8 85.7501C107.8 81.7501 108.733 79.7501 112.333 76.1501C116.067 72.4168 117.8 71.6168 122.733 71.6168C125.933 71.6168 129.933 72.5501 131.533 73.7501ZM266.2 84.5501C265.8 86.6835 263.667 86.9501 243.8 86.9501C223.933 86.9501 221.8 86.6835 221.4 84.5501C221 82.4168 222.733 82.2835 243.8 82.2835C264.867 82.2835 266.6 82.4168 266.2 84.5501ZM132.867 87.8835C133.8 88.8168 134.467 92.4168 134.467 96.0168C134.467 106.283 130.6 111.483 122.733 111.617C115.933 111.617 111.8 106.683 111.8 98.5501V92.0168L118.867 90.4168C122.6 89.6168 126.733 88.2835 127.8 87.6168C130.467 85.8835 131 86.0168 132.867 87.8835ZM263.267 91.8835C263.8 92.8168 263 94.2835 261.4 95.3501C259.8 96.4168 258.467 98.6835 258.467 100.283C258.467 103.75 250.733 111.083 245.933 112.417C240.067 113.883 229.133 105.483 229.133 99.6168C229.133 98.2835 227.8 96.4168 226.2 95.3501C220.333 91.4835 224.467 90.2835 243.8 90.2835C256.6 90.2835 262.6 90.8168 263.267 91.8835ZM196.733 110.417C198.333 110.95 200.6 112.95 201.8 114.817C204.733 119.217 210.6 135.083 211.4 140.95C211.8 143.483 213.267 146.417 214.6 147.35C217.667 149.483 217.933 156.017 215.133 158.283C213.933 159.35 213.4 161.083 213.933 162.683C214.467 164.55 214.2 165.083 213 164.55C211.933 164.15 208.867 163.083 206.067 162.15C203.267 161.217 199.8 159.083 198.467 157.217C195.933 154.15 195.933 154.017 198.467 150.55C204.467 142.283 204.333 127.883 198.467 121.483L195.4 118.417L189.933 121.35C186.6 123.083 181.933 124.15 177.933 124.283C171.8 124.283 171.267 124.55 170.2 128.283C168.6 133.883 169.933 143.217 173.133 148.683C177 155.083 175.533 157.883 167 161.75C158.733 165.35 157 165.617 157.933 163.217C158.333 162.15 157.933 158.417 157.133 154.817C155.933 149.35 155.933 148.15 157.667 146.817C158.867 146.017 159.8 144.017 159.8 142.55C159.8 140.95 161 137.083 162.333 134.017C163.8 130.817 165.933 125.483 167 122.15C169.667 114.817 174.067 110.417 180.067 108.95C184.6 107.883 191.533 108.417 196.733 110.417ZM129.133 115.35C129 115.883 127.667 118.017 125.933 120.017L122.867 123.883L119.933 119.883C118.467 117.617 117.133 115.617 117.133 115.217C117.133 114.817 119.8 114.55 123.133 114.55C126.467 114.55 129.133 114.95 129.133 115.35ZM247.8 117.617C245.8 120.017 241 119.75 240.067 117.217C239.8 116.15 241.133 115.617 244.467 115.617C248.867 115.617 249.267 115.883 247.8 117.617ZM238.867 120.95C240.067 122.417 242.333 123.617 243.8 123.617C245.267 123.617 247.667 122.417 249.133 120.95C254.467 115.617 257.267 118.683 255 127.217C254.2 130.017 253.4 130.283 243.8 130.283H233.533L232.6 126.15C232.2 123.883 231.8 121.083 231.8 120.15C231.8 117.35 236.2 117.883 238.867 120.95ZM118.867 122.95C121.133 126.017 121.133 126.283 118.333 127.617C116.867 128.55 115.4 128.95 115.133 128.683C114.067 127.35 111.8 122.283 111.8 121.083C111.8 118.417 116.467 119.617 118.867 122.95ZM134.467 120.95C134.467 121.75 133.667 123.617 132.867 125.35C131.933 126.95 131 128.417 130.867 128.683C130.733 128.95 129.4 128.55 127.933 127.617C125.133 126.283 125.133 126.017 127.4 122.95C129.8 119.75 134.467 118.417 134.467 120.95ZM229.533 125.75C229.8 129.217 231 132.417 231.933 133.083C233 133.75 238.467 134.283 244.067 134.283C256.2 134.283 258.467 132.817 258.467 124.683C258.467 121.083 259 119.617 260.2 120.017C261.267 120.417 261.8 123.883 261.667 132.15L261.4 143.75H243.933H226.333L226.2 132.683C226.2 119.483 226.2 119.617 227.667 119.617C228.2 119.617 229.133 122.417 229.533 125.75ZM222.467 133.083C222.467 144.817 222.333 145.083 219.533 144.683C216.733 144.283 216.467 143.483 216.067 136.15C215.8 129.617 216.2 127.483 218.467 124.55C220.067 122.55 221.533 120.95 221.933 120.95C222.2 120.95 222.467 126.417 222.467 133.083ZM271.533 136.15C271.133 143.483 270.867 144.283 268.2 144.683C265.267 145.083 265.133 144.817 265.133 132.683L265.267 120.283L268.6 124.15C271.533 127.483 271.933 128.95 271.533 136.15ZM145.533 124.817C148.867 126.283 152.2 128.683 153 130.15C154.867 133.483 154.867 145.883 153.133 146.95C152.467 147.35 151.8 150.15 151.8 152.95C151.8 155.75 152.467 158.55 153.133 158.95C153.933 159.35 154.467 161.483 154.467 163.75C154.467 167.217 154.067 167.617 150.2 167.617H145.8V152.683C145.8 132.283 143.267 132.017 142.733 152.283L142.333 167.617H134.2H126.067L129 164.417L132.067 161.083L129.933 148.55C127.267 132.817 127.267 131.883 130.067 132.15C131.533 132.15 133.4 130.283 135.133 127.35C136.6 124.55 138.2 122.283 138.733 122.283C139.133 122.283 142.333 123.483 145.533 124.817ZM198.6 128.817C199.8 132.95 199.8 135.617 198.6 140.55C195.8 151.35 189.8 155.75 181.933 152.417C176.6 150.15 172.733 141.617 173.4 133.617C173.8 128.55 173.933 128.417 179.133 128.283C182.067 128.15 186.6 127.083 189.133 125.883C196.067 122.817 196.867 123.083 198.6 128.817ZM126.733 147.217C128.867 160.283 128.867 160.283 125.933 163.35L123 166.417L120.2 163.35C117.533 160.283 117.533 160.017 119.533 147.217C120.733 139.883 122.333 134.283 123.133 134.283C123.933 134.283 125.533 139.883 126.733 147.217ZM195.133 159.217C196.2 160.55 197.133 162.017 197.133 162.417C197.133 164.283 185.667 166.15 180.733 164.95C174.2 163.483 173.667 162.95 176.333 160.283C177.533 159.083 178.467 157.75 178.467 157.217C178.467 156.683 181.8 156.417 185.933 156.55C191.4 156.683 193.8 157.35 195.133 159.217ZM174.867 166.95C181.267 169.617 189.667 169.483 197.267 166.683C203.4 164.55 203.667 164.55 209.933 167.75C219.533 172.417 221.133 176.55 221.133 195.75V211.35L216.467 211.883C213.933 212.15 211.8 212.283 211.8 212.283C211.8 212.15 212.733 210.15 213.933 207.75C217.133 201.35 215.8 199.75 206.867 199.35L199.267 198.95L196.467 187.617L193.667 176.283L173.4 175.617C154.333 174.95 153.133 174.817 154.733 172.683C156.467 170.283 165.933 165.083 168.6 164.95C169.4 164.95 172.333 165.883 174.867 166.95ZM194.2 193.617C196.6 202.15 198.467 209.617 198.467 210.283C198.467 211.083 189.267 211.617 174.733 211.617H150.867L146.733 196.283C144.333 187.75 142.467 180.283 142.467 179.617C142.467 178.817 151.667 178.283 166.2 178.283H190.067L194.2 193.617ZM211.8 204.95C211.8 208.417 202.467 214.017 202.467 210.55C202.467 210.017 202.067 208.283 201.667 206.55C200.867 203.883 201.267 203.617 206.333 203.617C209.267 203.617 211.8 204.15 211.8 204.95Z"/>
</mask>
<path d="M232.067 61.2168C225.667 65.7501 221.133 72.0168 221.133 76.5501C221.133 78.1501 220.6 79.8835 219.8 80.2835C217.8 81.4835 218.2 88.5501 220.333 89.3501C221.533 89.8835 221.933 91.2168 221.533 92.8168C221.133 94.4168 221.933 96.2835 223.667 97.7501C225.267 99.0835 226.467 101.35 226.467 102.817C226.467 104.15 228.6 107.35 231.267 109.883C233.933 112.417 235.933 114.55 235.667 114.817C235.4 114.95 231.667 115.883 227.533 116.817C219.667 118.55 213.133 123.883 213.133 128.683C213.133 132.15 211.133 128.817 209.267 122.283C205.667 109.75 199.133 104.95 185.8 104.95C173.133 104.95 166.467 110.283 162.467 123.617C159.267 134.017 157.133 137.883 157.133 133.217C157.133 128.417 150.733 123.083 140.867 119.483C131.533 116.15 129.667 113.75 133.8 110.283C134.867 109.35 135.8 107.883 135.8 106.95C135.8 106.017 137.667 103.483 139.8 101.083C143.133 97.7501 143.667 96.4168 142.467 94.2835C141.8 92.9501 141.133 88.9501 141.133 85.4835C141.133 80.1501 140.467 78.6835 136.067 74.2835C129.4 67.6168 123.533 66.4168 115.4 70.0168C108.2 73.2168 105.4 77.8835 103.8 89.3501C102.6 97.8835 103.667 102.283 107.133 102.283C108.2 102.283 109.133 103.083 109.133 104.15C109.133 105.083 110.333 107.483 111.8 109.35C113.267 111.217 114.467 113.483 114.467 114.55C114.467 115.483 110.067 117.883 104.733 119.883C89.5333 125.617 89.2667 126.15 89 148.55C89 158.95 89.2667 168.15 89.8 168.817C90.8667 170.683 107.8 170.683 107.8 168.95C107.8 168.15 106.867 167.617 105.8 167.617C104.2 167.617 103.8 164.683 103.533 151.883C103 131.483 100.467 132.017 100.467 152.683V167.617H96.2H91.8V149.883C91.8 136.683 92.3333 131.483 93.6667 129.483C95.9333 126.417 108.067 121.217 108.733 123.083C110.2 127.617 114.867 133.083 116.467 132.417C119 131.483 119 132.283 116.2 148.017L114.067 160.95L117.133 164.283L120.2 167.617H116.067C113.667 167.617 111.8 168.15 111.8 168.95C111.8 169.75 119.4 170.283 131.8 170.283C151.533 170.283 151.8 170.283 150.467 172.95C149.4 175.083 147.667 175.617 143 175.617C138.467 175.617 137 176.15 137.533 177.35C137.933 178.283 140.067 186.283 142.333 194.95C144.733 203.75 146.867 212.017 147.267 213.35C147.933 215.483 150.6 215.617 186.2 215.35L224.467 214.95L224.867 200.95C225.4 183.617 224.6 177.483 220.867 171.617C217.533 166.283 217.267 162.95 219.667 158.417C220.6 156.683 221 153.617 220.6 151.483L219.933 147.617H246.333C268.2 147.617 273.133 147.217 274.467 145.617C275.533 144.283 275.933 140.683 275.533 134.95C274.867 123.75 270.867 119.083 259.933 116.817C255.8 115.883 252.2 114.95 251.933 114.817C251.667 114.55 253.667 112.417 256.333 109.883C259 107.35 261.133 104.15 261.133 102.817C261.133 101.35 262.333 99.0835 263.933 97.7501C265.667 96.4168 266.467 94.4168 266.067 92.9501C265.667 91.4835 266.2 90.1501 267.267 89.7501C269.4 88.9501 269.8 81.4835 267.8 80.2835C267.133 79.8835 266.467 78.1501 266.467 76.5501C266.467 71.8835 261.933 65.6168 255.133 61.0835C247 55.6168 240.067 55.6168 232.067 61.2168ZM250.067 66.9501C249.8 74.1501 252.333 75.6168 252.867 68.6835L253.267 63.6168L256.733 65.8835C259.8 68.0168 263.8 74.8168 263.8 78.2835C263.8 79.0835 256.6 79.6168 243.667 79.6168C225.8 79.6168 223.667 79.3501 224.333 77.4835C224.733 76.2835 225.133 74.5501 225.133 73.6168C225.133 72.6835 227.133 69.8835 229.533 67.4835L233.8 63.0835L234.467 68.1501C235.4 75.2168 237.667 74.6835 238.2 67.2168L238.6 60.9501H244.467H250.2L250.067 66.9501ZM131.533 73.7501C135.267 76.2835 138.467 82.4168 138.467 86.9501V90.2835L134.867 86.2835L131.133 82.1501L125.533 84.9501C122.467 86.4168 117.933 87.6168 115.4 87.6168C113 87.6168 110.333 88.2835 109.4 89.2168C108.2 90.4168 107.8 89.7501 107.8 85.7501C107.8 81.7501 108.733 79.7501 112.333 76.1501C116.067 72.4168 117.8 71.6168 122.733 71.6168C125.933 71.6168 129.933 72.5501 131.533 73.7501ZM266.2 84.5501C265.8 86.6835 263.667 86.9501 243.8 86.9501C223.933 86.9501 221.8 86.6835 221.4 84.5501C221 82.4168 222.733 82.2835 243.8 82.2835C264.867 82.2835 266.6 82.4168 266.2 84.5501ZM132.867 87.8835C133.8 88.8168 134.467 92.4168 134.467 96.0168C134.467 106.283 130.6 111.483 122.733 111.617C115.933 111.617 111.8 106.683 111.8 98.5501V92.0168L118.867 90.4168C122.6 89.6168 126.733 88.2835 127.8 87.6168C130.467 85.8835 131 86.0168 132.867 87.8835ZM263.267 91.8835C263.8 92.8168 263 94.2835 261.4 95.3501C259.8 96.4168 258.467 98.6835 258.467 100.283C258.467 103.75 250.733 111.083 245.933 112.417C240.067 113.883 229.133 105.483 229.133 99.6168C229.133 98.2835 227.8 96.4168 226.2 95.3501C220.333 91.4835 224.467 90.2835 243.8 90.2835C256.6 90.2835 262.6 90.8168 263.267 91.8835ZM196.733 110.417C198.333 110.95 200.6 112.95 201.8 114.817C204.733 119.217 210.6 135.083 211.4 140.95C211.8 143.483 213.267 146.417 214.6 147.35C217.667 149.483 217.933 156.017 215.133 158.283C213.933 159.35 213.4 161.083 213.933 162.683C214.467 164.55 214.2 165.083 213 164.55C211.933 164.15 208.867 163.083 206.067 162.15C203.267 161.217 199.8 159.083 198.467 157.217C195.933 154.15 195.933 154.017 198.467 150.55C204.467 142.283 204.333 127.883 198.467 121.483L195.4 118.417L189.933 121.35C186.6 123.083 181.933 124.15 177.933 124.283C171.8 124.283 171.267 124.55 170.2 128.283C168.6 133.883 169.933 143.217 173.133 148.683C177 155.083 175.533 157.883 167 161.75C158.733 165.35 157 165.617 157.933 163.217C158.333 162.15 157.933 158.417 157.133 154.817C155.933 149.35 155.933 148.15 157.667 146.817C158.867 146.017 159.8 144.017 159.8 142.55C159.8 140.95 161 137.083 162.333 134.017C163.8 130.817 165.933 125.483 167 122.15C169.667 114.817 174.067 110.417 180.067 108.95C184.6 107.883 191.533 108.417 196.733 110.417ZM129.133 115.35C129 115.883 127.667 118.017 125.933 120.017L122.867 123.883L119.933 119.883C118.467 117.617 117.133 115.617 117.133 115.217C117.133 114.817 119.8 114.55 123.133 114.55C126.467 114.55 129.133 114.95 129.133 115.35ZM247.8 117.617C245.8 120.017 241 119.75 240.067 117.217C239.8 116.15 241.133 115.617 244.467 115.617C248.867 115.617 249.267 115.883 247.8 117.617ZM238.867 120.95C240.067 122.417 242.333 123.617 243.8 123.617C245.267 123.617 247.667 122.417 249.133 120.95C254.467 115.617 257.267 118.683 255 127.217C254.2 130.017 253.4 130.283 243.8 130.283H233.533L232.6 126.15C232.2 123.883 231.8 121.083 231.8 120.15C231.8 117.35 236.2 117.883 238.867 120.95ZM118.867 122.95C121.133 126.017 121.133 126.283 118.333 127.617C116.867 128.55 115.4 128.95 115.133 128.683C114.067 127.35 111.8 122.283 111.8 121.083C111.8 118.417 116.467 119.617 118.867 122.95ZM134.467 120.95C134.467 121.75 133.667 123.617 132.867 125.35C131.933 126.95 131 128.417 130.867 128.683C130.733 128.95 129.4 128.55 127.933 127.617C125.133 126.283 125.133 126.017 127.4 122.95C129.8 119.75 134.467 118.417 134.467 120.95ZM229.533 125.75C229.8 129.217 231 132.417 231.933 133.083C233 133.75 238.467 134.283 244.067 134.283C256.2 134.283 258.467 132.817 258.467 124.683C258.467 121.083 259 119.617 260.2 120.017C261.267 120.417 261.8 123.883 261.667 132.15L261.4 143.75H243.933H226.333L226.2 132.683C226.2 119.483 226.2 119.617 227.667 119.617C228.2 119.617 229.133 122.417 229.533 125.75ZM222.467 133.083C222.467 144.817 222.333 145.083 219.533 144.683C216.733 144.283 216.467 143.483 216.067 136.15C215.8 129.617 216.2 127.483 218.467 124.55C220.067 122.55 221.533 120.95 221.933 120.95C222.2 120.95 222.467 126.417 222.467 133.083ZM271.533 136.15C271.133 143.483 270.867 144.283 268.2 144.683C265.267 145.083 265.133 144.817 265.133 132.683L265.267 120.283L268.6 124.15C271.533 127.483 271.933 128.95 271.533 136.15ZM145.533 124.817C148.867 126.283 152.2 128.683 153 130.15C154.867 133.483 154.867 145.883 153.133 146.95C152.467 147.35 151.8 150.15 151.8 152.95C151.8 155.75 152.467 158.55 153.133 158.95C153.933 159.35 154.467 161.483 154.467 163.75C154.467 167.217 154.067 167.617 150.2 167.617H145.8V152.683C145.8 132.283 143.267 132.017 142.733 152.283L142.333 167.617H134.2H126.067L129 164.417L132.067 161.083L129.933 148.55C127.267 132.817 127.267 131.883 130.067 132.15C131.533 132.15 133.4 130.283 135.133 127.35C136.6 124.55 138.2 122.283 138.733 122.283C139.133 122.283 142.333 123.483 145.533 124.817ZM198.6 128.817C199.8 132.95 199.8 135.617 198.6 140.55C195.8 151.35 189.8 155.75 181.933 152.417C176.6 150.15 172.733 141.617 173.4 133.617C173.8 128.55 173.933 128.417 179.133 128.283C182.067 128.15 186.6 127.083 189.133 125.883C196.067 122.817 196.867 123.083 198.6 128.817ZM126.733 147.217C128.867 160.283 128.867 160.283 125.933 163.35L123 166.417L120.2 163.35C117.533 160.283 117.533 160.017 119.533 147.217C120.733 139.883 122.333 134.283 123.133 134.283C123.933 134.283 125.533 139.883 126.733 147.217ZM195.133 159.217C196.2 160.55 197.133 162.017 197.133 162.417C197.133 164.283 185.667 166.15 180.733 164.95C174.2 163.483 173.667 162.95 176.333 160.283C177.533 159.083 178.467 157.75 178.467 157.217C178.467 156.683 181.8 156.417 185.933 156.55C191.4 156.683 193.8 157.35 195.133 159.217ZM174.867 166.95C181.267 169.617 189.667 169.483 197.267 166.683C203.4 164.55 203.667 164.55 209.933 167.75C219.533 172.417 221.133 176.55 221.133 195.75V211.35L216.467 211.883C213.933 212.15 211.8 212.283 211.8 212.283C211.8 212.15 212.733 210.15 213.933 207.75C217.133 201.35 215.8 199.75 206.867 199.35L199.267 198.95L196.467 187.617L193.667 176.283L173.4 175.617C154.333 174.95 153.133 174.817 154.733 172.683C156.467 170.283 165.933 165.083 168.6 164.95C169.4 164.95 172.333 165.883 174.867 166.95ZM194.2 193.617C196.6 202.15 198.467 209.617 198.467 210.283C198.467 211.083 189.267 211.617 174.733 211.617H150.867L146.733 196.283C144.333 187.75 142.467 180.283 142.467 179.617C142.467 178.817 151.667 178.283 166.2 178.283H190.067L194.2 193.617ZM211.8 204.95C211.8 208.417 202.467 214.017 202.467 210.55C202.467 210.017 202.067 208.283 201.667 206.55C200.867 203.883 201.267 203.617 206.333 203.617C209.267 203.617 211.8 204.15 211.8 204.95Z" fill="#FA9E0C"/>
<path d="M232.067 61.2168C225.667 65.7501 221.133 72.0168 221.133 76.5501C221.133 78.1501 220.6 79.8835 219.8 80.2835C217.8 81.4835 218.2 88.5501 220.333 89.3501C221.533 89.8835 221.933 91.2168 221.533 92.8168C221.133 94.4168 221.933 96.2835 223.667 97.7501C225.267 99.0835 226.467 101.35 226.467 102.817C226.467 104.15 228.6 107.35 231.267 109.883C233.933 112.417 235.933 114.55 235.667 114.817C235.4 114.95 231.667 115.883 227.533 116.817C219.667 118.55 213.133 123.883 213.133 128.683C213.133 132.15 211.133 128.817 209.267 122.283C205.667 109.75 199.133 104.95 185.8 104.95C173.133 104.95 166.467 110.283 162.467 123.617C159.267 134.017 157.133 137.883 157.133 133.217C157.133 128.417 150.733 123.083 140.867 119.483C131.533 116.15 129.667 113.75 133.8 110.283C134.867 109.35 135.8 107.883 135.8 106.95C135.8 106.017 137.667 103.483 139.8 101.083C143.133 97.7501 143.667 96.4168 142.467 94.2835C141.8 92.9501 141.133 88.9501 141.133 85.4835C141.133 80.1501 140.467 78.6835 136.067 74.2835C129.4 67.6168 123.533 66.4168 115.4 70.0168C108.2 73.2168 105.4 77.8835 103.8 89.3501C102.6 97.8835 103.667 102.283 107.133 102.283C108.2 102.283 109.133 103.083 109.133 104.15C109.133 105.083 110.333 107.483 111.8 109.35C113.267 111.217 114.467 113.483 114.467 114.55C114.467 115.483 110.067 117.883 104.733 119.883C89.5333 125.617 89.2667 126.15 89 148.55C89 158.95 89.2667 168.15 89.8 168.817C90.8667 170.683 107.8 170.683 107.8 168.95C107.8 168.15 106.867 167.617 105.8 167.617C104.2 167.617 103.8 164.683 103.533 151.883C103 131.483 100.467 132.017 100.467 152.683V167.617H96.2H91.8V149.883C91.8 136.683 92.3333 131.483 93.6667 129.483C95.9333 126.417 108.067 121.217 108.733 123.083C110.2 127.617 114.867 133.083 116.467 132.417C119 131.483 119 132.283 116.2 148.017L114.067 160.95L117.133 164.283L120.2 167.617H116.067C113.667 167.617 111.8 168.15 111.8 168.95C111.8 169.75 119.4 170.283 131.8 170.283C151.533 170.283 151.8 170.283 150.467 172.95C149.4 175.083 147.667 175.617 143 175.617C138.467 175.617 137 176.15 137.533 177.35C137.933 178.283 140.067 186.283 142.333 194.95C144.733 203.75 146.867 212.017 147.267 213.35C147.933 215.483 150.6 215.617 186.2 215.35L224.467 214.95L224.867 200.95C225.4 183.617 224.6 177.483 220.867 171.617C217.533 166.283 217.267 162.95 219.667 158.417C220.6 156.683 221 153.617 220.6 151.483L219.933 147.617H246.333C268.2 147.617 273.133 147.217 274.467 145.617C275.533 144.283 275.933 140.683 275.533 134.95C274.867 123.75 270.867 119.083 259.933 116.817C255.8 115.883 252.2 114.95 251.933 114.817C251.667 114.55 253.667 112.417 256.333 109.883C259 107.35 261.133 104.15 261.133 102.817C261.133 101.35 262.333 99.0835 263.933 97.7501C265.667 96.4168 266.467 94.4168 266.067 92.9501C265.667 91.4835 266.2 90.1501 267.267 89.7501C269.4 88.9501 269.8 81.4835 267.8 80.2835C267.133 79.8835 266.467 78.1501 266.467 76.5501C266.467 71.8835 261.933 65.6168 255.133 61.0835C247 55.6168 240.067 55.6168 232.067 61.2168ZM250.067 66.9501C249.8 74.1501 252.333 75.6168 252.867 68.6835L253.267 63.6168L256.733 65.8835C259.8 68.0168 263.8 74.8168 263.8 78.2835C263.8 79.0835 256.6 79.6168 243.667 79.6168C225.8 79.6168 223.667 79.3501 224.333 77.4835C224.733 76.2835 225.133 74.5501 225.133 73.6168C225.133 72.6835 227.133 69.8835 229.533 67.4835L233.8 63.0835L234.467 68.1501C235.4 75.2168 237.667 74.6835 238.2 67.2168L238.6 60.9501H244.467H250.2L250.067 66.9501ZM131.533 73.7501C135.267 76.2835 138.467 82.4168 138.467 86.9501V90.2835L134.867 86.2835L131.133 82.1501L125.533 84.9501C122.467 86.4168 117.933 87.6168 115.4 87.6168C113 87.6168 110.333 88.2835 109.4 89.2168C108.2 90.4168 107.8 89.7501 107.8 85.7501C107.8 81.7501 108.733 79.7501 112.333 76.1501C116.067 72.4168 117.8 71.6168 122.733 71.6168C125.933 71.6168 129.933 72.5501 131.533 73.7501ZM266.2 84.5501C265.8 86.6835 263.667 86.9501 243.8 86.9501C223.933 86.9501 221.8 86.6835 221.4 84.5501C221 82.4168 222.733 82.2835 243.8 82.2835C264.867 82.2835 266.6 82.4168 266.2 84.5501ZM132.867 87.8835C133.8 88.8168 134.467 92.4168 134.467 96.0168C134.467 106.283 130.6 111.483 122.733 111.617C115.933 111.617 111.8 106.683 111.8 98.5501V92.0168L118.867 90.4168C122.6 89.6168 126.733 88.2835 127.8 87.6168C130.467 85.8835 131 86.0168 132.867 87.8835ZM263.267 91.8835C263.8 92.8168 263 94.2835 261.4 95.3501C259.8 96.4168 258.467 98.6835 258.467 100.283C258.467 103.75 250.733 111.083 245.933 112.417C240.067 113.883 229.133 105.483 229.133 99.6168C229.133 98.2835 227.8 96.4168 226.2 95.3501C220.333 91.4835 224.467 90.2835 243.8 90.2835C256.6 90.2835 262.6 90.8168 263.267 91.8835ZM196.733 110.417C198.333 110.95 200.6 112.95 201.8 114.817C204.733 119.217 210.6 135.083 211.4 140.95C211.8 143.483 213.267 146.417 214.6 147.35C217.667 149.483 217.933 156.017 215.133 158.283C213.933 159.35 213.4 161.083 213.933 162.683C214.467 164.55 214.2 165.083 213 164.55C211.933 164.15 208.867 163.083 206.067 162.15C203.267 161.217 199.8 159.083 198.467 157.217C195.933 154.15 195.933 154.017 198.467 150.55C204.467 142.283 204.333 127.883 198.467 121.483L195.4 118.417L189.933 121.35C186.6 123.083 181.933 124.15 177.933 124.283C171.8 124.283 171.267 124.55 170.2 128.283C168.6 133.883 169.933 143.217 173.133 148.683C177 155.083 175.533 157.883 167 161.75C158.733 165.35 157 165.617 157.933 163.217C158.333 162.15 157.933 158.417 157.133 154.817C155.933 149.35 155.933 148.15 157.667 146.817C158.867 146.017 159.8 144.017 159.8 142.55C159.8 140.95 161 137.083 162.333 134.017C163.8 130.817 165.933 125.483 167 122.15C169.667 114.817 174.067 110.417 180.067 108.95C184.6 107.883 191.533 108.417 196.733 110.417ZM129.133 115.35C129 115.883 127.667 118.017 125.933 120.017L122.867 123.883L119.933 119.883C118.467 117.617 117.133 115.617 117.133 115.217C117.133 114.817 119.8 114.55 123.133 114.55C126.467 114.55 129.133 114.95 129.133 115.35ZM247.8 117.617C245.8 120.017 241 119.75 240.067 117.217C239.8 116.15 241.133 115.617 244.467 115.617C248.867 115.617 249.267 115.883 247.8 117.617ZM238.867 120.95C240.067 122.417 242.333 123.617 243.8 123.617C245.267 123.617 247.667 122.417 249.133 120.95C254.467 115.617 257.267 118.683 255 127.217C254.2 130.017 253.4 130.283 243.8 130.283H233.533L232.6 126.15C232.2 123.883 231.8 121.083 231.8 120.15C231.8 117.35 236.2 117.883 238.867 120.95ZM118.867 122.95C121.133 126.017 121.133 126.283 118.333 127.617C116.867 128.55 115.4 128.95 115.133 128.683C114.067 127.35 111.8 122.283 111.8 121.083C111.8 118.417 116.467 119.617 118.867 122.95ZM134.467 120.95C134.467 121.75 133.667 123.617 132.867 125.35C131.933 126.95 131 128.417 130.867 128.683C130.733 128.95 129.4 128.55 127.933 127.617C125.133 126.283 125.133 126.017 127.4 122.95C129.8 119.75 134.467 118.417 134.467 120.95ZM229.533 125.75C229.8 129.217 231 132.417 231.933 133.083C233 133.75 238.467 134.283 244.067 134.283C256.2 134.283 258.467 132.817 258.467 124.683C258.467 121.083 259 119.617 260.2 120.017C261.267 120.417 261.8 123.883 261.667 132.15L261.4 143.75H243.933H226.333L226.2 132.683C226.2 119.483 226.2 119.617 227.667 119.617C228.2 119.617 229.133 122.417 229.533 125.75ZM222.467 133.083C222.467 144.817 222.333 145.083 219.533 144.683C216.733 144.283 216.467 143.483 216.067 136.15C215.8 129.617 216.2 127.483 218.467 124.55C220.067 122.55 221.533 120.95 221.933 120.95C222.2 120.95 222.467 126.417 222.467 133.083ZM271.533 136.15C271.133 143.483 270.867 144.283 268.2 144.683C265.267 145.083 265.133 144.817 265.133 132.683L265.267 120.283L268.6 124.15C271.533 127.483 271.933 128.95 271.533 136.15ZM145.533 124.817C148.867 126.283 152.2 128.683 153 130.15C154.867 133.483 154.867 145.883 153.133 146.95C152.467 147.35 151.8 150.15 151.8 152.95C151.8 155.75 152.467 158.55 153.133 158.95C153.933 159.35 154.467 161.483 154.467 163.75C154.467 167.217 154.067 167.617 150.2 167.617H145.8V152.683C145.8 132.283 143.267 132.017 142.733 152.283L142.333 167.617H134.2H126.067L129 164.417L132.067 161.083L129.933 148.55C127.267 132.817 127.267 131.883 130.067 132.15C131.533 132.15 133.4 130.283 135.133 127.35C136.6 124.55 138.2 122.283 138.733 122.283C139.133 122.283 142.333 123.483 145.533 124.817ZM198.6 128.817C199.8 132.95 199.8 135.617 198.6 140.55C195.8 151.35 189.8 155.75 181.933 152.417C176.6 150.15 172.733 141.617 173.4 133.617C173.8 128.55 173.933 128.417 179.133 128.283C182.067 128.15 186.6 127.083 189.133 125.883C196.067 122.817 196.867 123.083 198.6 128.817ZM126.733 147.217C128.867 160.283 128.867 160.283 125.933 163.35L123 166.417L120.2 163.35C117.533 160.283 117.533 160.017 119.533 147.217C120.733 139.883 122.333 134.283 123.133 134.283C123.933 134.283 125.533 139.883 126.733 147.217ZM195.133 159.217C196.2 160.55 197.133 162.017 197.133 162.417C197.133 164.283 185.667 166.15 180.733 164.95C174.2 163.483 173.667 162.95 176.333 160.283C177.533 159.083 178.467 157.75 178.467 157.217C178.467 156.683 181.8 156.417 185.933 156.55C191.4 156.683 193.8 157.35 195.133 159.217ZM174.867 166.95C181.267 169.617 189.667 169.483 197.267 166.683C203.4 164.55 203.667 164.55 209.933 167.75C219.533 172.417 221.133 176.55 221.133 195.75V211.35L216.467 211.883C213.933 212.15 211.8 212.283 211.8 212.283C211.8 212.15 212.733 210.15 213.933 207.75C217.133 201.35 215.8 199.75 206.867 199.35L199.267 198.95L196.467 187.617L193.667 176.283L173.4 175.617C154.333 174.95 153.133 174.817 154.733 172.683C156.467 170.283 165.933 165.083 168.6 164.95C169.4 164.95 172.333 165.883 174.867 166.95ZM194.2 193.617C196.6 202.15 198.467 209.617 198.467 210.283C198.467 211.083 189.267 211.617 174.733 211.617H150.867L146.733 196.283C144.333 187.75 142.467 180.283 142.467 179.617C142.467 178.817 151.667 178.283 166.2 178.283H190.067L194.2 193.617ZM211.8 204.95C211.8 208.417 202.467 214.017 202.467 210.55C202.467 210.017 202.067 208.283 201.667 206.55C200.867 203.883 201.267 203.617 206.333 203.617C209.267 203.617 211.8 204.15 211.8 204.95Z" stroke="#FA9E0C" stroke-width="2" mask="url(#path-1-outside-1_68_4)"/>
<path d="M175.039 195.426L175.038 195.418L175.037 195.409C174.913 194.357 174.585 193.701 174.024 193.26C173.44 192.801 172.525 192.512 171.089 192.382C169.935 192.283 169.011 192.261 168.274 192.329C167.534 192.398 167.018 192.556 166.652 192.789C165.967 193.225 165.633 194.049 165.633 195.75C165.633 196.89 166.698 198.093 168.592 198.599C170.945 199.187 172.696 199.089 173.767 198.525C174.291 198.249 174.657 197.86 174.87 197.366C175.087 196.867 175.162 196.224 175.039 195.426ZM160.633 195.617C160.633 194.771 160.971 193.723 161.469 192.727C161.973 191.72 162.669 190.707 163.446 189.93C166.843 186.533 172.852 186.29 177.154 189.341C180.459 191.641 180.867 195.389 179.42 198.495C177.978 201.59 174.676 204.117 170.467 204.117C168.056 204.117 165.611 203.023 163.774 201.446C161.945 199.876 160.633 197.749 160.633 195.617Z" fill="#FA9E0C" stroke="#FA9E0C"/>
<path d="M95.4654 222.094L96.7981 220.763L98.2066 222.013C120.208 241.546 148.918 253.441 180.371 253.441C249.087 253.441 305 197.313 305 127.724C305 58.4412 249.084 2 180.371 2C111.658 2 55.7355 58.4414 55.7355 127.724C55.7355 159.453 67.6502 188.443 86.9107 210.734L88.1015 212.112L86.8403 213.426L79.6993 220.867L78.2528 222.375L76.8099 220.864L70.2933 214.04L70.2469 213.992L70.204 213.94C69.1156 212.636 67.257 211.874 65.223 211.874C63.3022 211.874 61.626 212.565 60.1177 214.07C60.1163 214.071 60.115 214.073 60.1136 214.074L4.25403 270.49L4.21954 270.524L4.18338 270.558C1.35709 273.145 1.26086 277.739 3.97336 280.722L28.7757 305.802L28.8352 305.863L28.8893 305.928C29.9796 307.234 31.84 308 33.8703 308C35.7867 308 37.4631 307.306 38.9733 305.8C38.9754 305.798 38.9775 305.796 38.9797 305.794L94.8393 249.384L94.8471 249.376C97.7894 246.437 97.7894 241.813 94.8471 238.874L94.831 238.858L94.8153 238.841L88.2926 232.024L86.9394 230.609L88.3244 229.226L95.4654 222.094ZM63.4842 231.095L64.8975 229.663L66.3211 231.085L78.1178 242.867L79.5244 244.272L78.1279 245.687L35.2938 289.087L33.8801 290.52L32.4566 289.097L20.666 277.315L19.2601 275.91L20.6561 274.495L63.4842 231.095ZM70.358 128.032C70.358 66.808 119.654 16.9088 180.371 16.9088C241.087 16.9088 290.378 66.8081 290.378 128.032C290.378 189.264 241.08 238.841 180.371 238.841C119.662 238.841 70.358 189.264 70.358 128.032Z" fill="#007577" stroke="#C8DFE0" stroke-width="4"/>
</svg>
